# Blender v2.81 (sub 16) OBJ File: ''
# www.blender.org
mtllib sutr.mtl
o Sphere
v 0.000000 0.623447 -0.500000
v 0.000000 0.359947 -0.866025
v 0.000000 -0.000000 -1.000000
v 0.000000 -0.359947 -0.866025
v 0.000000 -0.623447 -0.500000
v -0.000000 0.719894 -0.000000
v 0.475528 0.623447 -0.154509
v 0.823639 0.359947 -0.267617
v 0.951056 -0.000000 -0.309017
v 0.823639 -0.359947 -0.267617
v 0.475528 -0.623447 -0.154509
v 0.293893 0.623447 0.404508
v 0.509037 0.359947 0.700629
v 0.587785 -0.000000 0.809017
v 0.509037 -0.359947 0.700629
v 0.293893 -0.623447 0.404508
v 0.000000 -0.719894 -0.000000
v -0.293893 0.623447 0.404508
v -0.509037 0.359947 0.700629
v -0.587785 -0.000000 0.809017
v -0.509037 -0.359947 0.700629
v -0.293893 -0.623447 0.404508
v -0.475528 0.623447 -0.154509
v -0.823639 0.359947 -0.267617
v -0.951056 -0.000000 -0.309017
v -0.823639 -0.359947 -0.267617
v -0.475528 -0.623447 -0.154509
vt 0.500000 0.000000
vt 0.600000 0.166667
vt 0.400000 0.166667
vt 0.600000 0.333333
vt 0.600000 0.500000
vt 0.400000 0.500000
vt 0.400000 0.333333
vt 0.600000 0.666667
vt 0.600000 0.833333
vt 0.400000 0.833333
vt 0.400000 0.666667
vt 0.500000 1.000000
vt 0.200000 0.833333
vt 0.200000 0.666667
vt 0.200000 0.333333
vt 0.200000 0.166667
vt 0.200000 0.500000
vt 0.300000 1.000000
vt 0.300000 0.000000
vt 0.000000 0.333333
vt 0.000000 0.166667
vt 0.000000 0.666667
vt 0.000000 0.500000
vt 0.100000 1.000000
vt 0.000000 0.833333
vt 0.100000 0.000000
vt 1.000000 0.166667
vt 1.000000 0.333333
vt 0.800000 0.333333
vt 0.800000 0.166667
vt 1.000000 0.500000
vt 1.000000 0.666667
vt 0.800000 0.666667
vt 0.800000 0.500000
vt 1.000000 0.833333
vt 0.900000 1.000000
vt 0.800000 0.833333
vt 0.900000 0.000000
vt 0.700000 1.000000
vt 0.700000 0.000000
vn 0.1363 -0.9727 -0.1876
vn 0.5628 -0.2883 -0.7747
vn 0.3907 0.7471 -0.5378
vn 0.3907 -0.7471 -0.5378
vn 0.5628 0.2883 -0.7747
vn 0.1363 0.9727 -0.1876
vn 0.6322 0.7471 0.2054
vn 0.6322 -0.7471 0.2054
vn 0.9107 0.2883 0.2959
vn 0.2206 0.9727 0.0717
vn 0.2206 -0.9727 0.0717
vn 0.9107 -0.2883 0.2959
vn 0.0000 -0.7471 0.6648
vn -0.0000 0.2883 0.9575
vn -0.0000 0.9727 0.2319
vn -0.0000 -0.9727 0.2319
vn 0.0000 -0.2883 0.9575
vn -0.0000 0.7471 0.6648
vn -0.6322 -0.7471 0.2054
vn -0.9107 0.2883 0.2959
vn -0.2206 0.9727 0.0717
vn -0.2206 -0.9727 0.0717
vn -0.9107 -0.2883 0.2959
vn -0.6322 0.7471 0.2054
vn -0.3907 -0.7471 -0.5378
vn -0.5628 0.2883 -0.7747
vn -0.1363 0.9727 -0.1876
vn -0.1363 -0.9727 -0.1876
vn -0.5628 -0.2883 -0.7747
vn -0.3907 0.7471 -0.5378
usemtl Material.003
s off
f 17/1/1 5/2/1 11/3/1
f 4/4/2 3/5/2 9/6/2 10/7/2
f 2/8/3 1/9/3 7/10/3 8/11/3
f 5/2/4 4/4/4 10/7/4 11/3/4
f 3/5/5 2/8/5 8/11/5 9/6/5
f 1/9/6 6/12/6 7/10/6
f 8/11/7 7/10/7 12/13/7 13/14/7
f 11/3/8 10/7/8 15/15/8 16/16/8
f 9/6/9 8/11/9 13/14/9 14/17/9
f 7/10/10 6/18/10 12/13/10
f 17/19/11 11/3/11 16/16/11
f 10/7/12 9/6/12 14/17/12 15/15/12
f 16/16/13 15/15/13 21/20/13 22/21/13
f 14/17/14 13/14/14 19/22/14 20/23/14
f 12/13/15 6/24/15 18/25/15
f 17/26/16 16/16/16 22/21/16
f 15/15/17 14/17/17 20/23/17 21/20/17
f 13/14/18 12/13/18 18/25/18 19/22/18
f 22/27/19 21/28/19 26/29/19 27/30/19
f 20/31/20 19/32/20 24/33/20 25/34/20
f 18/35/21 6/36/21 23/37/21
f 17/38/22 22/27/22 27/30/22
f 21/28/23 20/31/23 25/34/23 26/29/23
f 19/32/24 18/35/24 23/37/24 24/33/24
f 27/30/25 26/29/25 4/4/25 5/2/25
f 25/34/26 24/33/26 2/8/26 3/5/26
f 23/37/27 6/39/27 1/9/27
f 17/40/28 27/30/28 5/2/28
f 26/29/29 25/34/29 3/5/29 4/4/29
f 24/33/30 23/37/30 1/9/30 2/8/30
