# Blender v2.81 (sub 16) OBJ File: ''
# www.blender.org
mtllib sutr_2.mtl
o Sphere.001
v -0.197029 0.415245 -1.482105
v -0.341264 0.719226 -1.979658
v -0.394058 0.830490 -2.659328
v -0.341264 0.719226 -3.338999
v -0.197029 0.415245 -3.836552
v -0.000000 -0.000000 -1.299988
v 0.496260 0.392677 -1.482105
v 0.859548 0.680137 -1.979658
v 0.992521 0.785354 -2.659328
v 0.859548 0.680137 -3.338999
v 0.496260 0.392677 -3.836552
v 0.503735 -0.172557 -1.482105
v 0.872494 -0.298878 -1.979658
v 1.007469 -0.345115 -2.659328
v 0.872494 -0.298878 -3.338999
v 0.503735 -0.172557 -3.836552
v -0.000000 0.000000 -4.018669
v -0.184935 -0.499323 -1.482105
v -0.320317 -0.864853 -1.979658
v -0.369871 -0.998646 -2.659328
v -0.320317 -0.864853 -3.338999
v -0.184935 -0.499323 -3.836552
v -0.618031 -0.136041 -1.482105
v -1.070461 -0.235630 -1.979658
v -1.236062 -0.272083 -2.659328
v -1.070461 -0.235630 -3.338999
v -0.618031 -0.136041 -3.836552
vt 0.500000 0.000000
vt 0.600000 0.166667
vt 0.400000 0.166667
vt 0.600000 0.333333
vt 0.600000 0.500000
vt 0.400000 0.500000
vt 0.400000 0.333333
vt 0.600000 0.666667
vt 0.600000 0.833333
vt 0.400000 0.833333
vt 0.400000 0.666667
vt 0.500000 1.000000
vt 0.200000 0.833333
vt 0.200000 0.666667
vt 0.200000 0.333333
vt 0.200000 0.166667
vt 0.200000 0.500000
vt 0.300000 1.000000
vt 0.300000 0.000000
vt 0.000000 0.333333
vt 0.000000 0.166667
vt 0.000000 0.666667
vt 0.000000 0.500000
vt 0.100000 1.000000
vt 0.000000 0.833333
vt 0.100000 0.000000
vt 1.000000 0.166667
vt 1.000000 0.333333
vt 0.800000 0.333333
vt 0.800000 0.166667
vt 1.000000 0.500000
vt 1.000000 0.666667
vt 0.800000 0.666667
vt 0.800000 0.500000
vt 1.000000 0.833333
vt 0.900000 1.000000
vt 0.800000 0.833333
vt 0.900000 0.000000
vt 0.700000 1.000000
vt 0.700000 0.000000
vn 0.0132 0.4069 -0.9134
vn 0.0321 0.9867 -0.1590
vn 0.0279 0.8566 0.5152
vn 0.0279 0.8566 -0.5152
vn 0.0321 0.9867 0.1590
vn 0.0132 0.4069 0.9134
vn 0.8046 0.0106 0.5937
vn 0.8046 0.0106 -0.5937
vn 0.9809 0.0130 0.1939
vn 0.3414 0.0045 0.9399
vn 0.3414 0.0045 -0.9399
vn 0.9809 0.0130 -0.1939
vn 0.3761 -0.7926 -0.4800
vn 0.4241 -0.8939 0.1450
vn 0.1886 -0.3974 0.8981
vn 0.1886 -0.3974 -0.8981
vn 0.4241 -0.8939 -0.1450
vn 0.3761 -0.7926 0.4800
vn -0.5172 -0.6165 -0.5937
vn -0.6305 -0.7516 0.1939
vn -0.2194 -0.2616 0.9399
vn -0.2194 -0.2616 -0.9399
vn -0.6305 -0.7516 -0.1939
vn -0.5172 -0.6165 0.5937
vn -0.6811 0.5202 -0.5152
vn -0.7846 0.5992 0.1590
vn -0.3235 0.2471 0.9134
vn -0.3235 0.2471 -0.9134
vn -0.7846 0.5992 -0.1590
vn -0.6811 0.5202 0.5152
usemtl Material.004
s off
f 17/1/1 5/2/1 11/3/1
f 4/4/2 3/5/2 9/6/2 10/7/2
f 2/8/3 1/9/3 7/10/3 8/11/3
f 5/2/4 4/4/4 10/7/4 11/3/4
f 3/5/5 2/8/5 8/11/5 9/6/5
f 1/9/6 6/12/6 7/10/6
f 8/11/7 7/10/7 12/13/7 13/14/7
f 11/3/8 10/7/8 15/15/8 16/16/8
f 9/6/9 8/11/9 13/14/9 14/17/9
f 7/10/10 6/18/10 12/13/10
f 17/19/11 11/3/11 16/16/11
f 10/7/12 9/6/12 14/17/12 15/15/12
f 16/16/13 15/15/13 21/20/13 22/21/13
f 14/17/14 13/14/14 19/22/14 20/23/14
f 12/13/15 6/24/15 18/25/15
f 17/26/16 16/16/16 22/21/16
f 15/15/17 14/17/17 20/23/17 21/20/17
f 13/14/18 12/13/18 18/25/18 19/22/18
f 22/27/19 21/28/19 26/29/19 27/30/19
f 20/31/20 19/32/20 24/33/20 25/34/20
f 18/35/21 6/36/21 23/37/21
f 17/38/22 22/27/22 27/30/22
f 21/28/23 20/31/23 25/34/23 26/29/23
f 19/32/24 18/35/24 23/37/24 24/33/24
f 27/30/25 26/29/25 4/4/25 5/2/25
f 25/34/26 24/33/26 2/8/26 3/5/26
f 23/37/27 6/39/27 1/9/27
f 17/40/28 27/30/28 5/2/28
f 26/29/29 25/34/29 3/5/29 4/4/29
f 24/33/30 23/37/30 1/9/30 2/8/30
