# Blender v2.81 (sub 16) OBJ File: 'BlenderNatureAsset.blend'
# www.blender.org
mtllib Rock03.mtl
o CaillouxHiver3_Icosphere.006
v -0.016527 -0.029047 0.023106
v 0.247878 -0.026341 0.197018
v -0.083266 0.004936 0.290630
v -0.310327 -0.043420 0.014455
v -0.107957 -0.029047 -0.258293
v 0.222846 -0.029047 -0.150807
v 0.003341 0.215765 0.297732
v -0.275414 0.246551 0.195157
v -0.232405 0.187385 -0.110430
v 0.121813 0.204632 -0.274597
v 0.246442 0.198065 0.023942
v -0.006350 0.306799 0.144807
v -0.070268 -0.029047 0.188507
v 0.125663 -0.028886 0.125328
v 0.070160 -0.028624 0.290364
v 0.289291 -0.026407 0.023106
v 0.124172 -0.029047 -0.079117
v -0.194955 -0.029047 0.023106
v -0.208966 0.028677 0.181518
v -0.070268 -0.029047 -0.142295
v -0.239587 -0.045877 -0.157917
v 0.070432 -0.029047 -0.244519
v 0.334765 0.073188 0.125743
v 0.305817 0.071769 -0.078462
v -0.044441 0.099106 0.331644
v 0.184305 0.084826 0.283514
v -0.275193 0.121626 0.125688
v -0.181280 0.153743 0.265786
v -0.190963 0.053655 -0.232024
v -0.315418 0.034145 -0.098352
v 0.177916 0.075207 -0.244521
v 0.021039 0.060199 -0.310244
v 0.212934 0.237247 0.192350
v -0.179439 0.258581 0.270696
v -0.317219 0.241861 0.023338
v 0.018602 0.199489 -0.259520
v 0.213224 0.246449 -0.141579
v -0.020509 0.296528 0.251794
v 0.162556 0.328727 0.063813
v -0.182165 0.320724 0.156940
v -0.135815 0.318671 -0.075876
v 0.063667 0.325107 -0.159833
vn 0.0009 -1.0000 0.0003
vn 0.0181 -0.9998 0.0047
vn 0.0000 -1.0000 0.0000
vn 0.8032 -0.5641 0.1915
vn -0.0794 -0.3703 0.9255
vn -0.7897 -0.2183 0.5733
vn -0.5518 -0.3076 -0.7752
vn 0.4609 -0.4752 -0.7496
vn 0.7129 -0.1287 0.6894
vn -0.4828 -0.1747 0.8581
vn -0.9841 0.1227 0.1288
vn -0.3444 -0.0479 -0.9376
vn 0.7732 -0.2059 -0.5998
vn 0.3338 0.5386 0.7736
vn -0.4428 0.7824 0.4380
vn -0.5665 0.5727 -0.5925
vn -0.1418 0.6460 -0.7500
vn 0.8401 0.5424 -0.0100
vn -0.2043 -0.9363 0.2856
vn 0.0015 -1.0000 0.0021
vn 0.0166 -0.9998 0.0072
vn 0.0086 -0.9999 0.0119
vn 0.0156 -0.9999 0.0007
vn 0.0006 -1.0000 0.0008
vn 0.0902 -0.9331 0.3480
vn -0.3804 -0.8793 0.2868
vn -0.3829 -0.8900 0.2474
vn 0.1019 -0.9942 -0.0331
vn 0.0923 -0.9933 0.0696
vn 0.1187 -0.9909 0.0629
vn 0.8551 0.5032 -0.1247
vn 0.9461 -0.2959 -0.1321
vn 0.8312 -0.4612 -0.3106
vn 0.2135 0.1911 0.9581
vn 0.1957 -0.1382 0.9709
vn 0.4328 -0.3863 0.8145
vn -0.7505 -0.3222 0.5770
vn -0.7878 -0.2146 0.5773
vn -0.6551 -0.3170 0.6858
vn -0.7130 0.3378 -0.6145
vn -0.7101 -0.1631 -0.6849
vn -0.7950 -0.5160 -0.3189
vn 0.3897 -0.0449 -0.9199
vn 0.3866 -0.3986 -0.8317
vn 0.0633 -0.5688 -0.8200
vn 0.3717 0.4241 0.8258
vn 0.7084 0.2595 0.6564
vn 0.8071 0.5899 0.0233
vn -0.6163 -0.0260 0.7871
vn -0.4444 -0.0341 0.8952
vn -0.0692 0.3045 0.9500
vn -0.7231 0.3445 -0.5988
vn -0.9631 -0.1422 0.2284
vn -0.9621 -0.1339 0.2377
vn -0.1525 0.3358 -0.9295
vn -0.3369 0.3170 -0.8866
vn -0.4553 0.5176 -0.7244
vn 0.8893 0.4550 -0.0455
vn 0.7786 0.1975 -0.5956
vn 0.7776 0.1984 -0.5967
vn -0.0888 0.9925 0.0835
vn 0.3268 0.8258 0.4597
vn 0.8469 0.5299 0.0452
vn 0.0858 0.9906 0.1065
vn -0.1501 0.8661 0.4767
vn -0.0137 0.4913 0.8709
vn 0.0794 0.9968 0.0070
vn -0.4312 0.8974 -0.0938
vn -0.5871 0.8004 0.1210
vn -0.0077 0.9983 0.0582
vn -0.3104 0.6568 -0.6872
vn -0.4536 0.5235 -0.7212
vn -0.1127 0.9931 0.0338
vn 0.4749 0.8511 -0.2238
vn 0.4441 0.7210 -0.5319
g CaillouxHiver3_Icosphere.006_snow
usemtl snow
s off
f 1//1 14//1 13//1
f 2//2 14//2 16//2
f 1//3 13//3 18//3
f 1//3 18//3 20//3
f 1//3 20//3 17//3
f 2//4 16//4 23//4
f 3//5 15//5 25//5
f 4//6 19//6 27//6
f 5//7 21//7 29//7
f 6//8 22//8 31//8
f 2//9 23//9 26//9
f 3//10 25//10 28//10
f 4//11 27//11 30//11
f 5//12 29//12 32//12
f 6//13 31//13 24//13
f 7//14 33//14 38//14
f 8//15 34//15 40//15
f 9//16 35//16 41//16
f 10//17 36//17 42//17
f 11//18 37//18 39//18
f 13//19 15//19 3//19
f 13//20 14//20 15//20
f 14//21 2//21 15//21
f 16//22 17//22 6//22
f 16//23 14//23 17//23
f 14//24 1//24 17//24
f 18//25 19//25 4//25
f 18//26 13//26 19//26
f 13//27 3//27 19//27
f 20//28 21//28 5//28
f 20//29 18//29 21//29
f 18//30 4//30 21//30
f 17//3 22//3 6//3
f 17//3 20//3 22//3
f 20//3 5//3 22//3
f 23//31 24//31 11//31
f 23//32 16//32 24//32
f 16//33 6//33 24//33
f 25//34 26//34 7//34
f 25//35 15//35 26//35
f 15//36 2//36 26//36
f 27//37 28//37 8//37
f 27//38 19//38 28//38
f 19//39 3//39 28//39
f 29//40 30//40 9//40
f 29//41 21//41 30//41
f 21//42 4//42 30//42
f 31//43 32//43 10//43
f 31//44 22//44 32//44
f 22//45 5//45 32//45
f 26//46 33//46 7//46
f 26//47 23//47 33//47
f 23//48 11//48 33//48
f 28//49 34//49 8//49
f 28//50 25//50 34//50
f 25//51 7//51 34//51
f 30//52 35//52 9//52
f 30//53 27//53 35//53
f 27//54 8//54 35//54
f 32//55 36//55 10//55
f 32//56 29//56 36//56
f 29//57 9//57 36//57
f 24//58 37//58 11//58
f 24//59 31//59 37//59
f 31//60 10//60 37//60
f 38//61 39//61 12//61
f 38//62 33//62 39//62
f 33//63 11//63 39//63
f 40//64 38//64 12//64
f 40//65 34//65 38//65
f 34//66 7//66 38//66
f 41//67 40//67 12//67
f 41//68 35//68 40//68
f 35//69 8//69 40//69
f 42//70 41//70 12//70
f 42//71 36//71 41//71
f 36//72 9//72 41//72
f 39//73 42//73 12//73
f 39//74 37//74 42//74
f 37//75 10//75 42//75
o Icosphere.005
v -0.016457 -0.053665 0.023268
v 0.249186 -0.050946 0.197994
v -0.083508 -0.019523 0.292044
v -0.311633 -0.068105 0.014577
v -0.108315 -0.053665 -0.259449
v 0.224037 -0.053665 -0.151459
v 0.003504 0.192293 0.299180
v -0.276556 0.223223 0.196124
v -0.233345 0.163780 -0.110893
v 0.122531 0.181108 -0.275829
v 0.247743 0.174510 0.024108
v -0.006232 0.283753 0.145539
v -0.070449 -0.053665 0.189443
v 0.126399 -0.053503 0.125969
v 0.070636 -0.053239 0.291778
v 0.290793 -0.051013 0.023268
v 0.124901 -0.053665 -0.079434
v -0.195720 -0.053665 0.023268
v -0.209797 0.004330 0.182422
v -0.070449 -0.053665 -0.142908
v -0.240562 -0.070573 -0.158603
v 0.070909 -0.053665 -0.245611
v 0.336479 0.049049 0.126385
v 0.307396 0.047624 -0.078776
v -0.044501 0.075089 0.333251
v 0.185315 0.060741 0.284896
v -0.276334 0.097713 0.126330
v -0.181982 0.129981 0.267084
v -0.191709 0.029425 -0.233057
v -0.316748 0.009823 -0.098759
v 0.178896 0.051077 -0.245612
v 0.021285 0.035999 -0.311643
v 0.214079 0.213876 0.193305
v -0.180132 0.235309 0.272017
v -0.318557 0.218512 0.023501
v 0.018836 0.175941 -0.260681
v 0.214370 0.223121 -0.142188
v -0.020458 0.273434 0.253026
v 0.163465 0.305784 0.064165
v -0.182871 0.297743 0.157728
v -0.136304 0.295681 -0.076178
v 0.064113 0.302147 -0.160527
vn 0.0009 -1.0000 0.0003
vn 0.0181 -0.9998 0.0047
vn 0.0000 -1.0000 -0.0000
vn 0.8032 -0.5641 0.1915
vn -0.0794 -0.3703 0.9255
vn -0.7897 -0.2183 0.5733
vn -0.5518 -0.3076 -0.7752
vn 0.4609 -0.4752 -0.7496
vn 0.7129 -0.1287 0.6894
vn -0.4828 -0.1747 0.8581
vn -0.9841 0.1227 0.1288
vn -0.3444 -0.0479 -0.9376
vn 0.7732 -0.2059 -0.5998
vn 0.3338 0.5386 0.7736
vn -0.4428 0.7824 0.4380
vn -0.5665 0.5727 -0.5925
vn -0.1418 0.6460 -0.7500
vn 0.8401 0.5424 -0.0100
vn -0.2043 -0.9363 0.2856
vn 0.0015 -1.0000 0.0021
vn 0.0166 -0.9998 0.0072
vn 0.0086 -0.9999 0.0119
vn 0.0156 -0.9999 0.0007
vn 0.0006 -1.0000 0.0008
vn 0.0902 -0.9331 0.3480
vn -0.3804 -0.8793 0.2868
vn -0.3829 -0.8900 0.2474
vn 0.1019 -0.9942 -0.0331
vn 0.0923 -0.9933 0.0696
vn 0.1187 -0.9909 0.0629
vn 0.8551 0.5032 -0.1247
vn 0.9461 -0.2959 -0.1321
vn 0.8312 -0.4612 -0.3106
vn 0.2135 0.1911 0.9581
vn 0.1957 -0.1382 0.9709
vn 0.4328 -0.3863 0.8145
vn -0.7505 -0.3222 0.5770
vn -0.7878 -0.2146 0.5773
vn -0.6551 -0.3170 0.6858
vn -0.7130 0.3378 -0.6145
vn -0.7101 -0.1631 -0.6849
vn -0.7950 -0.5160 -0.3189
vn 0.3897 -0.0449 -0.9199
vn 0.3866 -0.3986 -0.8317
vn 0.0633 -0.5688 -0.8200
vn 0.3717 0.4241 0.8258
vn 0.7084 0.2595 0.6564
vn 0.8071 0.5899 0.0233
vn -0.6163 -0.0260 0.7871
vn -0.4444 -0.0341 0.8952
vn -0.0692 0.3045 0.9500
vn -0.7231 0.3445 -0.5988
vn -0.9631 -0.1422 0.2284
vn -0.9621 -0.1339 0.2377
vn -0.1525 0.3358 -0.9295
vn -0.3369 0.3170 -0.8866
vn -0.4553 0.5176 -0.7244
vn 0.8893 0.4550 -0.0455
vn 0.7786 0.1975 -0.5956
vn 0.7776 0.1984 -0.5967
vn -0.0888 0.9925 0.0835
vn 0.3268 0.8258 0.4597
vn 0.8469 0.5299 0.0452
vn 0.0858 0.9906 0.1065
vn -0.1501 0.8661 0.4767
vn -0.0137 0.4913 0.8709
vn 0.0794 0.9968 0.0070
vn -0.4312 0.8974 -0.0938
vn -0.5871 0.8004 0.1210
vn -0.0077 0.9983 0.0582
vn -0.3104 0.6568 -0.6872
vn -0.4536 0.5235 -0.7212
vn -0.1127 0.9931 0.0338
vn 0.4749 0.8511 -0.2238
vn 0.4441 0.7210 -0.5319
g Icosphere.005_Icosphere.005_Material.006
usemtl Material.006
s off
f 43//76 56//76 55//76
f 44//77 56//77 58//77
f 43//78 55//78 60//78
f 43//78 60//78 62//78
f 43//78 62//78 59//78
f 44//79 58//79 65//79
f 45//80 57//80 67//80
f 46//81 61//81 69//81
f 47//82 63//82 71//82
f 48//83 64//83 73//83
f 44//84 65//84 68//84
f 45//85 67//85 70//85
f 46//86 69//86 72//86
f 47//87 71//87 74//87
f 48//88 73//88 66//88
f 49//89 75//89 80//89
f 50//90 76//90 82//90
f 51//91 77//91 83//91
f 52//92 78//92 84//92
f 53//93 79//93 81//93
f 55//94 57//94 45//94
f 55//95 56//95 57//95
f 56//96 44//96 57//96
f 58//97 59//97 48//97
f 58//98 56//98 59//98
f 56//99 43//99 59//99
f 60//100 61//100 46//100
f 60//101 55//101 61//101
f 55//102 45//102 61//102
f 62//103 63//103 47//103
f 62//104 60//104 63//104
f 60//105 46//105 63//105
f 59//78 64//78 48//78
f 59//78 62//78 64//78
f 62//78 47//78 64//78
f 65//106 66//106 53//106
f 65//107 58//107 66//107
f 58//108 48//108 66//108
f 67//109 68//109 49//109
f 67//110 57//110 68//110
f 57//111 44//111 68//111
f 69//112 70//112 50//112
f 69//113 61//113 70//113
f 61//114 45//114 70//114
f 71//115 72//115 51//115
f 71//116 63//116 72//116
f 63//117 46//117 72//117
f 73//118 74//118 52//118
f 73//119 64//119 74//119
f 64//120 47//120 74//120
f 68//121 75//121 49//121
f 68//122 65//122 75//122
f 65//123 53//123 75//123
f 70//124 76//124 50//124
f 70//125 67//125 76//125
f 67//126 49//126 76//126
f 72//127 77//127 51//127
f 72//128 69//128 77//128
f 69//129 50//129 77//129
f 74//130 78//130 52//130
f 74//131 71//131 78//131
f 71//132 51//132 78//132
f 66//133 79//133 53//133
f 66//134 73//134 79//134
f 73//135 52//135 79//135
f 80//136 81//136 54//136
f 80//137 75//137 81//137
f 75//138 53//138 81//138
f 82//139 80//139 54//139
f 82//140 76//140 80//140
f 76//141 49//141 80//141
f 83//142 82//142 54//142
f 83//143 77//143 82//143
f 77//144 50//144 82//144
f 84//145 83//145 54//145
f 84//146 78//146 83//146
f 78//147 51//147 83//147
f 81//148 84//148 54//148
f 81//149 79//149 84//149
f 79//150 52//150 84//150
