# Blender v2.81 (sub 16) OBJ File: 'BlenderNatureAsset.blend'
# www.blender.org
mtllib Rock02.mtl
o CaillouHiver2_Icosphere.007
v -0.024939 0.033009 0.060371
v 0.187807 0.021599 0.196431
v -0.101999 0.024037 0.265533
v -0.351068 0.012013 0.001460
v -0.119746 0.025588 -0.173275
v 0.171782 0.024633 -0.104189
v 0.026666 0.151742 0.205515
v -0.285862 0.200360 0.093514
v -0.278552 0.210316 -0.121509
v 0.007627 0.228313 -0.171037
v 0.186105 0.205475 -0.019514
v -0.032865 0.233814 0.051556
v -0.072873 0.032878 0.202660
v 0.101092 0.033152 0.150976
v 0.050105 0.026006 0.286668
v 0.225243 0.023942 0.046152
v 0.099770 0.033009 -0.030234
v -0.181130 0.032972 0.055943
v -0.273461 0.027396 0.142894
v -0.072778 0.032898 -0.085997
v -0.261681 0.016387 -0.105204
v 0.038629 0.025729 -0.161365
v 0.232678 0.087453 0.087273
v 0.215194 0.095315 -0.078294
v -0.034145 0.077073 0.275007
v 0.145954 0.090868 0.247571
v -0.362075 0.094472 0.070055
v -0.245624 0.098558 0.171539
v -0.247905 0.097456 -0.171448
v -0.369169 0.079417 -0.072685
v 0.131500 0.116827 -0.167296
v -0.069424 0.100160 -0.200419
v 0.138521 0.187812 0.096528
v -0.184861 0.181328 0.117447
v -0.286048 0.225733 -0.012318
v -0.163692 0.240978 -0.183713
v 0.121676 0.241579 -0.125041
v -0.008641 0.231989 0.128784
v 0.071274 0.250213 0.015451
v -0.178135 0.243245 0.047877
v -0.174578 0.271433 -0.039701
v -0.039607 0.291071 -0.070899
vn 0.0014 -1.0000 -0.0004
vn -0.1098 -0.9930 -0.0428
vn 0.0003 -1.0000 -0.0008
vn 0.0002 -1.0000 0.0007
vn 0.0004 -1.0000 0.0006
vn 0.9383 -0.2586 0.2297
vn -0.1376 -0.0009 0.9905
vn -0.7445 -0.4829 0.4610
vn -0.3271 -0.5640 -0.7582
vn 0.3557 -0.4171 -0.8364
vn 0.8667 0.1803 0.4651
vn -0.3853 0.3397 0.8580
vn -0.9798 -0.1878 0.0685
vn -0.1517 -0.2461 -0.9573
vn 0.6964 -0.1725 -0.6966
vn 0.3479 0.7234 0.5964
vn -0.0164 0.7477 0.6638
vn -0.4071 0.9001 -0.1550
vn 0.1004 0.8637 -0.4939
vn 0.3831 0.9202 0.0809
vn 0.0303 -0.9916 -0.1254
vn -0.0158 -0.9982 -0.0585
vn -0.0876 -0.9925 -0.0852
vn -0.0883 -0.9957 0.0268
vn -0.0729 -0.9973 0.0013
vn 0.0006 -1.0000 0.0008
vn 0.1066 -0.9931 0.0495
vn 0.0352 -0.9990 -0.0266
vn 0.0603 -0.9919 -0.1115
vn 0.0831 -0.9958 0.0387
vn 0.0806 -0.9948 0.0621
vn 0.1068 -0.9931 0.0488
vn -0.0400 -0.9965 0.0739
vn -0.0203 -0.9977 0.0649
vn -0.0056 -0.9962 0.0865
vn 0.9509 0.2972 -0.0863
vn 0.9931 -0.0469 -0.1071
vn 0.8570 -0.4140 -0.3067
vn 0.0654 0.6508 0.7565
vn 0.1095 0.3894 0.9145
vn 0.5196 -0.2816 0.8067
vn -0.6332 0.2974 0.7146
vn -0.6553 -0.0471 0.7539
vn -0.5802 -0.0985 0.8085
vn -0.6376 0.1603 -0.7535
vn -0.5039 -0.4936 -0.7088
vn -0.5468 -0.6816 -0.4862
vn 0.1503 0.1342 -0.9795
vn 0.1774 -0.2429 -0.9537
vn 0.0696 -0.3824 -0.9214
vn 0.2378 0.8227 0.5163
vn 0.6959 0.6194 0.3633
vn 0.6924 0.6148 0.3775
vn -0.0806 0.5861 0.8062
vn -0.2753 0.6593 0.6996
vn -0.1670 0.7412 0.6502
vn -0.8374 0.5303 -0.1324
vn -0.8678 0.4968 -0.0093
vn -0.8181 0.5588 0.1354
vn 0.0854 0.1736 -0.9811
vn -0.1604 0.0097 -0.9870
vn -0.5101 0.2284 -0.8293
vn 0.8327 0.4153 -0.3663
vn 0.7332 0.2692 -0.6244
vn 0.3206 0.3264 -0.8892
vn -0.1331 0.9890 0.0651
vn 0.3413 0.8602 0.3790
vn 0.4248 0.8527 0.3040
vn 0.0647 0.9979 0.0033
vn -0.2518 0.7349 0.6297
vn -0.2264 0.6193 0.7518
vn 0.0539 0.9499 0.3079
vn -0.3043 0.9103 0.2806
vn -0.2768 0.9343 0.2245
vn -0.0334 0.9047 0.4248
vn -0.1895 0.9576 -0.2168
vn -0.3606 0.9066 -0.2190
vn 0.0041 0.9059 0.4234
vn 0.3090 0.9496 0.0525
vn 0.0990 0.8635 -0.4945
g CaillouHiver2_Icosphere.007_snow
usemtl snow
s off
f 1//1 14//1 13//1
f 2//2 14//2 16//2
f 1//3 13//3 18//3
f 1//4 18//4 20//4
f 1//5 20//5 17//5
f 2//6 16//6 23//6
f 3//7 15//7 25//7
f 4//8 19//8 27//8
f 5//9 21//9 29//9
f 6//10 22//10 31//10
f 2//11 23//11 26//11
f 3//12 25//12 28//12
f 4//13 27//13 30//13
f 5//14 29//14 32//14
f 6//15 31//15 24//15
f 7//16 33//16 38//16
f 8//17 34//17 40//17
f 9//18 35//18 41//18
f 10//19 36//19 42//19
f 11//20 37//20 39//20
f 13//21 15//21 3//21
f 13//22 14//22 15//22
f 14//23 2//23 15//23
f 16//24 17//24 6//24
f 16//25 14//25 17//25
f 14//26 1//26 17//26
f 18//27 19//27 4//27
f 18//28 13//28 19//28
f 13//29 3//29 19//29
f 20//30 21//30 5//30
f 20//31 18//31 21//31
f 18//32 4//32 21//32
f 17//33 22//33 6//33
f 17//34 20//34 22//34
f 20//35 5//35 22//35
f 23//36 24//36 11//36
f 23//37 16//37 24//37
f 16//38 6//38 24//38
f 25//39 26//39 7//39
f 25//40 15//40 26//40
f 15//41 2//41 26//41
f 27//42 28//42 8//42
f 27//43 19//43 28//43
f 19//44 3//44 28//44
f 29//45 30//45 9//45
f 29//46 21//46 30//46
f 21//47 4//47 30//47
f 31//48 32//48 10//48
f 31//49 22//49 32//49
f 22//50 5//50 32//50
f 26//51 33//51 7//51
f 26//52 23//52 33//52
f 23//53 11//53 33//53
f 28//54 34//54 8//54
f 28//55 25//55 34//55
f 25//56 7//56 34//56
f 30//57 35//57 9//57
f 30//58 27//58 35//58
f 27//59 8//59 35//59
f 32//60 36//60 10//60
f 32//61 29//61 36//61
f 29//62 9//62 36//62
f 24//63 37//63 11//63
f 24//64 31//64 37//64
f 31//65 10//65 37//65
f 38//66 39//66 12//66
f 38//67 33//67 39//67
f 33//68 11//68 39//68
f 40//69 38//69 12//69
f 40//70 34//70 38//70
f 34//71 7//71 38//71
f 41//72 40//72 12//72
f 41//73 35//73 40//73
f 35//74 8//74 40//74
f 42//75 41//75 12//75
f 42//76 36//76 41//76
f 36//77 9//77 41//77
f 39//78 42//78 12//78
f 39//79 37//79 42//79
f 37//80 10//80 42//80
o Icosphere.004
v -0.025456 0.001949 0.064707
v 0.191344 -0.009678 0.203360
v -0.103986 -0.007193 0.273779
v -0.357801 -0.019447 0.004673
v -0.122071 -0.005613 -0.173392
v 0.175014 -0.006586 -0.102990
v 0.027131 0.122946 0.212617
v -0.291352 0.172490 0.098482
v -0.283903 0.182635 -0.120640
v 0.007730 0.200975 -0.171111
v 0.189610 0.177703 -0.016701
v -0.033534 0.206581 0.055724
v -0.074304 0.001816 0.209707
v 0.102976 0.002095 0.157039
v 0.051018 -0.005187 0.295316
v 0.229493 -0.007290 0.050217
v 0.101629 0.001949 -0.027625
v -0.184625 0.001912 0.060195
v -0.278715 -0.003770 0.148802
v -0.074207 0.001836 -0.084450
v -0.266711 -0.014989 -0.104023
v 0.039323 -0.005469 -0.161255
v 0.237070 0.057432 0.092121
v 0.219253 0.065443 -0.076601
v -0.034838 0.046854 0.283433
v 0.148693 0.060911 0.255475
v -0.369017 0.064584 0.074575
v -0.250348 0.068748 0.177994
v -0.252672 0.067625 -0.171530
v -0.376247 0.049243 -0.070885
v 0.133964 0.087365 -0.167299
v -0.070790 0.070381 -0.201054
v 0.141118 0.159703 0.101553
v -0.188427 0.153095 0.122871
v -0.291542 0.198346 -0.009368
v -0.166854 0.213882 -0.184029
v 0.123952 0.214494 -0.124239
v -0.008848 0.204722 0.134423
v 0.072590 0.223293 0.018931
v -0.181572 0.216192 0.051975
v -0.177947 0.244917 -0.037273
v -0.040405 0.264929 -0.069064
vn 0.0014 -1.0000 -0.0004
vn -0.1098 -0.9930 -0.0428
vn 0.0003 -1.0000 -0.0008
vn 0.0002 -1.0000 0.0007
vn 0.0004 -1.0000 0.0006
vn 0.9383 -0.2586 0.2297
vn -0.1376 -0.0009 0.9905
vn -0.7445 -0.4829 0.4610
vn -0.3271 -0.5640 -0.7582
vn 0.3557 -0.4171 -0.8364
vn 0.8667 0.1803 0.4651
vn -0.3853 0.3397 0.8580
vn -0.9798 -0.1878 0.0685
vn -0.1517 -0.2461 -0.9573
vn 0.6964 -0.1725 -0.6966
vn 0.3479 0.7234 0.5964
vn -0.0164 0.7477 0.6638
vn -0.4071 0.9001 -0.1550
vn 0.1004 0.8637 -0.4939
vn 0.3831 0.9202 0.0809
vn 0.0303 -0.9916 -0.1254
vn -0.0158 -0.9982 -0.0585
vn -0.0876 -0.9925 -0.0852
vn -0.0883 -0.9957 0.0268
vn -0.0729 -0.9973 0.0013
vn 0.0006 -1.0000 0.0008
vn 0.1066 -0.9931 0.0495
vn 0.0352 -0.9990 -0.0266
vn 0.0603 -0.9919 -0.1115
vn 0.0831 -0.9958 0.0387
vn 0.0806 -0.9948 0.0621
vn 0.1068 -0.9931 0.0488
vn -0.0400 -0.9965 0.0739
vn -0.0203 -0.9977 0.0649
vn -0.0056 -0.9962 0.0865
vn 0.9509 0.2972 -0.0863
vn 0.9931 -0.0469 -0.1071
vn 0.8570 -0.4140 -0.3067
vn 0.0654 0.6508 0.7565
vn 0.1095 0.3894 0.9145
vn 0.5196 -0.2816 0.8067
vn -0.6332 0.2974 0.7146
vn -0.6553 -0.0471 0.7539
vn -0.5802 -0.0985 0.8085
vn -0.6376 0.1603 -0.7535
vn -0.5039 -0.4936 -0.7088
vn -0.5468 -0.6816 -0.4862
vn 0.1503 0.1342 -0.9795
vn 0.1774 -0.2429 -0.9537
vn 0.0696 -0.3824 -0.9214
vn 0.2378 0.8227 0.5163
vn 0.6959 0.6194 0.3633
vn 0.6924 0.6148 0.3775
vn -0.0806 0.5861 0.8062
vn -0.2753 0.6593 0.6996
vn -0.1670 0.7412 0.6502
vn -0.8374 0.5303 -0.1324
vn -0.8678 0.4968 -0.0093
vn -0.8181 0.5588 0.1354
vn 0.0854 0.1736 -0.9811
vn -0.1604 0.0097 -0.9870
vn -0.5101 0.2284 -0.8293
vn 0.8327 0.4153 -0.3663
vn 0.7332 0.2692 -0.6244
vn 0.3206 0.3264 -0.8892
vn -0.1331 0.9890 0.0651
vn 0.3413 0.8602 0.3790
vn 0.4248 0.8527 0.3040
vn 0.0647 0.9979 0.0033
vn -0.2518 0.7349 0.6297
vn -0.2264 0.6193 0.7518
vn 0.0539 0.9499 0.3079
vn -0.3043 0.9103 0.2806
vn -0.2768 0.9343 0.2245
vn -0.0334 0.9047 0.4248
vn -0.1895 0.9576 -0.2168
vn -0.3606 0.9066 -0.2190
vn 0.0041 0.9059 0.4234
vn 0.3090 0.9496 0.0525
vn 0.0990 0.8635 -0.4945
g Icosphere.004_Icosphere.004_Material.005
usemtl Material.005
s off
f 43//81 56//81 55//81
f 44//82 56//82 58//82
f 43//83 55//83 60//83
f 43//84 60//84 62//84
f 43//85 62//85 59//85
f 44//86 58//86 65//86
f 45//87 57//87 67//87
f 46//88 61//88 69//88
f 47//89 63//89 71//89
f 48//90 64//90 73//90
f 44//91 65//91 68//91
f 45//92 67//92 70//92
f 46//93 69//93 72//93
f 47//94 71//94 74//94
f 48//95 73//95 66//95
f 49//96 75//96 80//96
f 50//97 76//97 82//97
f 51//98 77//98 83//98
f 52//99 78//99 84//99
f 53//100 79//100 81//100
f 55//101 57//101 45//101
f 55//102 56//102 57//102
f 56//103 44//103 57//103
f 58//104 59//104 48//104
f 58//105 56//105 59//105
f 56//106 43//106 59//106
f 60//107 61//107 46//107
f 60//108 55//108 61//108
f 55//109 45//109 61//109
f 62//110 63//110 47//110
f 62//111 60//111 63//111
f 60//112 46//112 63//112
f 59//113 64//113 48//113
f 59//114 62//114 64//114
f 62//115 47//115 64//115
f 65//116 66//116 53//116
f 65//117 58//117 66//117
f 58//118 48//118 66//118
f 67//119 68//119 49//119
f 67//120 57//120 68//120
f 57//121 44//121 68//121
f 69//122 70//122 50//122
f 69//123 61//123 70//123
f 61//124 45//124 70//124
f 71//125 72//125 51//125
f 71//126 63//126 72//126
f 63//127 46//127 72//127
f 73//128 74//128 52//128
f 73//129 64//129 74//129
f 64//130 47//130 74//130
f 68//131 75//131 49//131
f 68//132 65//132 75//132
f 65//133 53//133 75//133
f 70//134 76//134 50//134
f 70//135 67//135 76//135
f 67//136 49//136 76//136
f 72//137 77//137 51//137
f 72//138 69//138 77//138
f 69//139 50//139 77//139
f 74//140 78//140 52//140
f 74//141 71//141 78//141
f 71//142 51//142 78//142
f 66//143 79//143 53//143
f 66//144 73//144 79//144
f 73//145 52//145 79//145
f 80//146 81//146 54//146
f 80//147 75//147 81//147
f 75//148 53//148 81//148
f 82//149 80//149 54//149
f 82//150 76//150 80//150
f 76//151 49//151 80//151
f 83//152 82//152 54//152
f 83//153 77//153 82//153
f 77//154 50//154 82//154
f 84//155 83//155 54//155
f 84//156 78//156 83//156
f 78//157 51//157 83//157
f 81//158 84//158 54//158
f 81//159 79//159 84//159
f 79//160 52//160 84//160
